<?xml version="1.0" encoding="UTF-8"?>
<svg width="70px" height="70px" viewBox="0 0 70 70" version="1.1" xmlns="http://www.w3.org/2000/svg" xmlns:xlink="http://www.w3.org/1999/xlink">
    <title>待处理工单</title>
    <defs>
        <rect id="path-1" x="0" y="0" width="70" height="70" rx="4"></rect>
        <linearGradient x1="50%" y1="0%" x2="50%" y2="100%" id="linearGradient-3">
            <stop stop-color="#93D5FF" offset="0%"></stop>
            <stop stop-color="#639EF8" offset="100%"></stop>
        </linearGradient>
        <linearGradient x1="50%" y1="-25.7249949%" x2="50%" y2="81.4779936%" id="linearGradient-4">
            <stop stop-color="#486FFF" offset="0%"></stop>
            <stop stop-color="#94CAFF" offset="100%"></stop>
        </linearGradient>
        <linearGradient x1="50%" y1="-9.89200536%" x2="50%" y2="100%" id="linearGradient-5">
            <stop stop-color="#93ECFE" offset="0%"></stop>
            <stop stop-color="#4B6EEF" offset="100%"></stop>
        </linearGradient>
        <linearGradient x1="50%" y1="0%" x2="50%" y2="100%" id="linearGradient-6">
            <stop stop-color="#93BFFF" offset="0%"></stop>
            <stop stop-color="#93D9FF" offset="0%"></stop>
            <stop stop-color="#4B52EF" offset="100%"></stop>
        </linearGradient>
        <path d="M32.7740402,5.81949919 C32.844925,6.80472361 32.1047763,7.66133951 31.1196936,7.73416778 L9.19276816,7.73416778 C8.20768549,7.66133951 7.46753674,6.80472361 7.5384216,5.81949919 L7.5384216,1.91466859 C7.60932582,0.929915893 6.86993847,0.0735073885 5.88537667,1.78048118e-14 L1.65774672,1.78048118e-14 C0.673184916,0.0735073885 -0.0662024373,0.929915893 0.00470178359,1.91466859 L0.00470178359,15.4235651 C-0.0662024597,16.4083178 0.6731849,17.2647263 1.65774672,17.3382337 L38.654715,17.3382337 C39.6397977,17.2654054 40.3799465,16.4087895 40.3090616,15.4235651 L40.3090616,1.91466859 C40.3799465,0.929444167 39.6397977,0.0728282701 38.654715,1.78048118e-14 L34.4283867,1.78048118e-14 C33.443304,0.0728282701 32.7031553,0.929444167 32.7740402,1.91466859 L32.7740402,5.81949919 Z" id="path-7"></path>
        <linearGradient x1="50%" y1="22.5219391%" x2="50%" y2="100%" id="linearGradient-9">
            <stop stop-color="#DDEAFF" offset="0%"></stop>
            <stop stop-color="#F3F5FF" offset="100%"></stop>
        </linearGradient>
        <linearGradient x1="50%" y1="-6.4267419%" x2="50%" y2="100%" id="linearGradient-10">
            <stop stop-color="#78F6FF" offset="0%"></stop>
            <stop stop-color="#7DB3FF" offset="45.3872526%"></stop>
            <stop stop-color="#37ACFF" offset="100%"></stop>
        </linearGradient>
        <linearGradient x1="50%" y1="0%" x2="50%" y2="100%" id="linearGradient-11">
            <stop stop-color="#D8F7FF" offset="0%"></stop>
            <stop stop-color="#8FF0FF" offset="100%"></stop>
        </linearGradient>
        <linearGradient x1="50%" y1="0%" x2="50%" y2="100%" id="linearGradient-12">
            <stop stop-color="#3372F8" offset="0%"></stop>
            <stop stop-color="#8EE9FF" offset="100%"></stop>
        </linearGradient>
    </defs>
    <g id="首页" stroke="none" stroke-width="1" fill="none" fill-rule="evenodd">
        <g transform="translate(-14.000000, -698.000000)" id="编组-8备份">
            <g transform="translate(0.000000, 648.000000)">
                <g id="待处理工单" transform="translate(14.000000, 50.000000)">
                    <g id="椭圆形">
                        <mask id="mask-2" fill="white">
                            <use xlink:href="#path-1"></use>
                        </mask>
                        <use id="蒙版" fill="#4B6EEF" opacity="0.148632231" xlink:href="#path-1"></use>
                        <circle id="椭圆形备份-2" fill="#4B6EEF" opacity="0.12" mask="url(#mask-2)" cx="70.5" cy="5.5" r="20.5"></circle>
                        <circle id="椭圆形备份" fill="#4B6EEF" opacity="0.12" mask="url(#mask-2)" cx="23" cy="63" r="37"></circle>
                    </g>
                    <g id="daichuli-2" transform="translate(11.000000, 14.000000)">
                        <path d="M30.4446626,17.5170701 L9.92477775,17.5170701 C9.13210491,17.3496496 8.58367781,16.6241494 8.63878688,15.8158655 L8.63878688,1.70120452 C8.57805468,1.3041907 8.68042064,0.899487837 8.92261406,0.579096337 C9.16480748,0.258704836 9.52625081,0.0498462327 9.92477775,0 L30.4446626,0 C31.2379819,0.166401742 31.7869189,0.892576502 31.7306534,1.70120452 L31.7306534,15.744277 C31.8104886,16.5749809 31.2591089,17.3350813 30.4446626,17.5170701 L30.4446626,17.5170701 Z" id="路径" fill="url(#linearGradient-3)" fill-rule="nonzero"></path>
                        <path d="M11.6403,15.5321145 C10.8471064,15.3646299 10.2985247,14.6383699 10.3543091,13.8296084 L10.3543091,0.00260320716 L9.92477775,0.00260320716 C9.13145843,0.169004951 8.58252142,0.895179733 8.63878688,1.70380776 L8.63878688,15.7468802 C8.57804474,16.1440398 8.68037567,16.5488916 8.92253897,16.8694883 C9.16470228,17.1900851 9.52614465,17.3992166 9.92477775,17.4493863 L30.4446626,17.4493863 C31.2378562,17.2819017 31.7864379,16.5556417 31.7306534,15.7468802 L31.7306534,15.5347177 L11.6403,15.5347177 L11.6403,15.5321145 Z" id="路径" fill="#155CCB" fill-rule="nonzero" opacity="0.572091239"></path>
                        <path d="M32.8331173,21.7733354 L7.53632307,21.7733354 C6.63191854,21.7311862 5.92583018,20.9760239 5.94445379,20.0708293 L5.94445379,5.95746987 C5.9119205,5.52636036 6.05700857,5.10068529 6.34606265,4.77918636 C6.63511672,4.45768744 7.0430179,4.26830304 7.47514737,4.25496373 L32.7719416,4.25496373 C33.6768605,4.29642996 34.3837134,5.05179234 34.3651125,5.95746987 L34.3651125,19.9992407 C34.3991402,20.4378794 34.2566274,20.8719494 33.9692221,21.2050561 C33.6818168,21.5381627 33.2733098,21.7427322 32.8344189,21.7733354 L32.8331173,21.7733354 Z" id="路径" fill="url(#linearGradient-4)" fill-rule="nonzero"></path>
                        <path d="M9.25184528,19.7870783 C8.34692634,19.745612 7.64007348,18.9902496 7.65867442,18.0845721 L7.65867442,4.25496373 L7.53632307,4.25496373 C6.63191854,4.2971129 5.92583018,5.05227527 5.94445379,5.95746987 L5.94445379,19.9992407 C5.9119205,20.4303502 6.05700857,20.8560253 6.34606265,21.1775242 C6.63511672,21.4990231 7.0430179,21.6884075 7.47514737,21.7017468 L32.7719416,21.7017468 C33.6768605,21.6602806 34.3837134,20.9049182 34.3651125,19.9992407 L34.3651125,19.7870783 L9.25184528,19.7870783 L9.25184528,19.7870783 Z" id="路径" fill="#1B41CC" fill-rule="nonzero"></path>
                        <path d="M35.3452249,17.3049076 L39.5715533,20.4964558 L39.5715533,23.120502 L35.4064006,23.120502 L35.3452249,17.3049076 Z M5.02551699,17.3049076 L0.860364353,20.4964558 L0.860364353,23.0489134 L5.02551699,23.0489134 L5.02551699,17.3049076 Z" id="形状" fill="#1B41CC" fill-rule="nonzero"></path>
                        <path d="M34.4262881,27.9429861 L5.94315217,27.9429861 C5.44891314,27.9386724 4.97828342,27.7309112 4.64208807,27.3686084 C4.30589271,27.0063056 4.13384323,26.5214798 4.16645426,26.0282991 L4.16645426,10.4245961 C4.12107156,9.93874254 4.2803745,9.45597525 4.60600206,9.09254722 C4.93162962,8.72911918 5.39407416,8.51796345 5.88197647,8.50992749 L34.3651125,8.50992749 C34.8592274,8.51460057 35.3296283,8.72247617 35.6657415,9.08469053 C36.0018548,9.4469049 36.1740355,9.93151098 36.1418104,10.4245961 L36.1418104,26.0348072 C36.196029,26.521948 36.0396078,27.009054 35.711908,27.3735517 C35.3842081,27.7380494 34.9164317,27.9452331 34.4262881,27.9429861 Z" id="路径" fill="url(#linearGradient-5)" fill-rule="nonzero"></path>
                        <g id="椭圆形" transform="translate(0.059077, 20.215308)">
                            <mask id="mask-8" fill="white">
                                <use xlink:href="#path-7"></use>
                            </mask>
                            <use id="蒙版" fill="url(#linearGradient-6)" fill-rule="nonzero" xlink:href="#path-7"></use>
                        </g>
                        <path d="M32.0977075,15.0348994 L27.9937305,15.0348994 C27.3959346,14.9468084 26.9530347,14.43386 26.9530347,13.8296084 C26.9530347,13.2253568 27.3959346,12.7124084 27.9937305,12.6243173 L32.0977075,12.6243173 C32.3957921,12.6456279 32.6731364,12.7847068 32.8685058,13.0108469 C33.0638753,13.236987 33.1612014,13.5315891 33.1389957,13.8296084 C33.1604446,14.4418384 32.7065618,14.9672077 32.0977075,15.0348994 Z" id="路径" fill="url(#linearGradient-9)" fill-rule="nonzero" opacity="0.425310407"></path>
                        <g id="编组-23" transform="translate(32.015031, 17.066667)">
                            <path d="M14.8791341,1.99850908 C14.8791341,6.31703823 13.1997097,7.99642955 10.3206683,9.91582353 C8.88151068,10.6355344 8.88151068,12.0750881 10.3206683,12.7947659 C13.4396464,14.2340226 14.8791341,16.1532846 14.8791341,20.7118163 L14.8791341,20.7118163 L14.874,20.7115091 L14.8750114,20.7231958 C14.8750114,21.7960351 11.7419877,22.8453279 7.75986761,22.8958747 L7.45965224,22.8977778 C3.3359261,22.8977778 9.72654056e-15,21.8228561 9.72654056e-15,20.7231958 C9.72654056e-15,20.6963748 0.00198448906,20.6697868 0.00591649548,20.6434365 L0.00725160047,20.3752799 C0.0775744066,16.0693167 1.52204227,14.4319472 4.56298153,12.7947659 C5.76256562,12.3149257 6.00246924,10.6355344 4.56298153,9.91582353 C1.44406947,8.2363662 0.00454875114,6.55700787 0.00454875114,1.99850908 L0.00454875114,1.99850908 Z" id="形状结合" fill="url(#linearGradient-10)" fill-rule="nonzero"></path>
                            <path d="M7.45965224,3.98222222 C11.5833784,3.98222222 14.8791341,3.09816938 14.8791341,1.99850908 C14.8791341,0.898848781 11.5833784,0 7.45965224,0 C3.3359261,0 0.00454875114,0.898848781 0.00454875114,1.99850908 C0.00454875114,3.09816938 3.3359261,3.98222222 7.45965224,3.98222222 Z" id="椭圆形" fill="url(#linearGradient-11)"></path>
                            <path d="M5.27878309,8.63790769 L6.31807912,9.30886809 C6.96176575,9.72442652 7.78628592,9.73573298 8.44112529,9.33798094 L9.59369141,8.63790769 C9.93737385,8.42915361 10.0467549,7.98131532 9.83800081,7.63763288 C9.7059604,7.42024805 9.47005262,7.28752328 9.2157087,7.28752328 L5.67681107,7.28752328 C5.27151586,7.28752328 4.94295917,7.61607997 4.94295917,8.02137518 C4.94295917,8.27057502 5.06942232,8.50274621 5.27878309,8.63790769 Z" id="路径-19" fill="#AFE3FF" opacity="0.690771194"></path>
                            <path d="M2.80125326,18.5596653 C2.63669705,19.0247065 2.97984212,19.8758908 3.86404785,20.6309581 C4.74825358,21.3860254 6.14461914,21.7015343 7.51368272,21.7015343 C8.88274631,21.7015343 9.94905762,21.3199561 10.9706657,20.6309581 C11.9922738,19.9419602 12.2659733,19.2108567 12.2659733,18.5596653 C12.2659733,17.9084738 10.8416639,17.3202566 7.51368272,17.3202566 C4.18570149,17.3202566 2.96580946,18.094624 2.80125326,18.5596653 Z" id="路径-19备份" fill="url(#linearGradient-12)" opacity="0.770988828" transform="translate(7.513683, 19.510895) scale(1, -1) translate(-7.513683, -19.510895) "></path>
                            <rect id="矩形" fill="#A7E3FF" opacity="0.608482724" x="6.96187446" y="11.9466667" width="1" height="2.48888889" rx="0.5"></rect>
                        </g>
                    </g>
                </g>
            </g>
        </g>
    </g>
</svg>